<svg xmlns="http://www.w3.org/2000/svg" viewBox="2915.207 1091.199 30 30"><defs><style>.a{fill:#fff;}.b{fill:none;}.c,.e{fill:#002c58;}.c{stroke:#002c58;stroke-width:0.2px;}.d,.e{stroke:none;}</style></defs><g transform="translate(2915.207 1091.199)"><g class="a" transform="translate(0 0)"><path class="d" d="M 15 29.5 C 11.12691020965576 29.5 7.485640048980713 27.99173927307129 4.746950149536133 25.25304985046387 C 2.008260011672974 22.51436042785645 0.5 18.87309074401855 0.5 15 C 0.5 11.12691020965576 2.008260011672974 7.485640048980713 4.746950149536133 4.746950149536133 C 7.485640048980713 2.008260011672974 11.12691020965576 0.5 15 0.5 C 18.87309074401855 0.5 22.51436042785645 2.008260011672974 25.25304985046387 4.746950149536133 C 27.99173927307129 7.485640048980713 29.5 11.12691020965576 29.5 15 C 29.5 18.87309074401855 27.99173927307129 22.51436042785645 25.25304985046387 25.25304985046387 C 22.51436042785645 27.99173927307129 18.87309074401855 29.5 15 29.5 Z"/><path class="e" d="M 15 29 C 18.73953056335449 29 22.25523948669434 27.54375076293945 24.89949035644531 24.89949035644531 C 27.54375076293945 22.25523948669434 29 18.73953056335449 29 15 C 29 11.26047039031982 27.54375076293945 7.744760036468506 24.89949035644531 5.100510120391846 C 22.25523948669434 2.456249952316284 18.73953056335449 1 15 1 C 11.26047039031982 1 7.744760036468506 2.456249952316284 5.100510120391846 5.100510120391846 C 2.456249952316284 7.744760036468506 1 11.26047039031982 1 15 C 1 18.73953056335449 2.456249952316284 22.25523948669434 5.100510120391846 24.89949035644531 C 7.744760036468506 27.54375076293945 11.26047039031982 29 15 29 M 15 30 C 6.7157301902771 30 -1.77635683940025e-15 23.28426933288574 -1.77635683940025e-15 15 C -1.77635683940025e-15 6.7157301902771 6.7157301902771 -1.77635683940025e-15 15 -1.77635683940025e-15 C 23.28426933288574 -1.77635683940025e-15 30 6.7157301902771 30 15 C 30 23.28426933288574 23.28426933288574 30 15 30 Z"/></g><g transform="translate(3.739 3.739)"><path class="b" d="M9.762,17.3c-.084.112-.135.189-.186.258a3.52,3.52,0,0,1-2.863,1.565,3.611,3.611,0,0,1-3.42-2.175,3.678,3.678,0,0,1,.692-4.04.806.806,0,0,1,.9-.206.03.03,0,0,1-.008.017c-.042.034-.093.069-.135.1a3.129,3.129,0,0,0-1.284,3.112,3.176,3.176,0,0,0,4.822,2.261,3.3,3.3,0,0,0,1.5-2.974V-.091H9.374V3.76a4.063,4.063,0,0,0-5.126-.292A4.111,4.111,0,0,0,2.55,6.39a4.2,4.2,0,0,0,1.03,3.267H.017v.4H4.763c-.118-.095-.211-.163-.3-.232A3.558,3.558,0,0,1,3.032,6.253a3.514,3.514,0,0,1,2.441-2.9,3.516,3.516,0,0,1,3.648.817c.321.284.236.61.228.937A.82.82,0,0,1,9.23,4.98,3.186,3.186,0,0,0,5.743,3.725a3.283,3.283,0,0,0-2.322,2.8,3.2,3.2,0,0,0,3.1,3.55c.861.009,1.731,0,2.593,0h.236v.877H8.732v.43h.616v.877H0v.43H3.538a4.22,4.22,0,0,0,.135,5.665A4.1,4.1,0,0,0,6.08,19.577a4.043,4.043,0,0,0,3.277-1.049v3.894h.388C9.762,20.712,9.762,19.035,9.762,17.3Zm3-12.319c.093-.129.152-.206.211-.292a3.682,3.682,0,0,1,3.851-1.427,3.733,3.733,0,0,1,1.816,6.112c-.287.327-.591.284-.971.258l.22-.163a3.19,3.19,0,0,0,1.2-3.275,3.168,3.168,0,0,0-3.353-2.588,3.221,3.221,0,0,0-2.989,3.267v15.3c0,.069.008.138.008.215h.405v-3.86a4.149,4.149,0,0,0,5.819-5.9h3.53v-.4h-4.67c.017.026.017.043.025.052.118.095.236.181.355.275a3.542,3.542,0,0,1,1.275,3.636,3.65,3.65,0,0,1-6.072,1.943c-.329-.292-.287-.619-.262-1a3.343,3.343,0,0,0,3.336,1.487,3.263,3.263,0,0,0,2.576-3.92,3.163,3.163,0,0,0-3.1-2.476c-.861-.009-1.731,0-2.593,0h-.211v-.885h.642v-.4h-.642v-.894h9.348v-.4H19.035a4.277,4.277,0,0,0,.008-5.527A4.012,4.012,0,0,0,16.2,2.7a4.2,4.2,0,0,0-3.049,1.066V-.1H12.76C12.76,1.593,12.76,3.253,12.76,4.98ZM11.071,8.8v1.7h.4V8.8Zm0,9.525v1.693h.4V18.322Zm-8.5-7.367v.4H4.239v-.4Zm4.839.009H5.751v.4H7.415Zm7.9.387H17v-.387H15.311ZM11.071,5.539v1.7h.388v-1.7Zm0,9.533v1.693h.388V15.073Zm0-3.267v1.7h.388v-1.7Zm0-9.5V4h.388V2.307Zm7.465,9.043h1.638v-.387H18.536Zm3.986,0v-.387H21.5v.387ZM0,11.359H1.039v-.4H0ZM11.071-.091V.725h.388V-.091Zm0,21.671V22.4h.388V21.58Z" transform="translate(0 0.1)"/><path class="c" d="M9.854,17.482v5.106H9.465V18.694a4.052,4.052,0,0,1-3.277,1.049,4,4,0,0,1-2.407-1.221,4.222,4.222,0,0,1-.135-5.665H.108v-.43H9.457V11.55H8.84v-.43h.616v-.877H9.22c-.861,0-1.731.009-2.593,0A3.178,3.178,0,0,1,3.512,6.711,3.262,3.262,0,0,1,5.834,3.917,3.173,3.173,0,0,1,9.322,5.172.562.562,0,0,0,9.44,5.3c.008-.335.1-.653-.228-.937a3.491,3.491,0,0,0-3.648-.817A3.492,3.492,0,0,0,3.123,6.436,3.582,3.582,0,0,0,4.542,10.02c.084.069.177.138.3.232H.1v-.4H3.664a4.186,4.186,0,0,1-1.03-3.267,4.1,4.1,0,0,1,6.823-2.63V.1h.405V15.41a3.306,3.306,0,0,1-1.5,2.974,3.179,3.179,0,0,1-4.822-2.261,3.129,3.129,0,0,1,1.284-3.112c.042-.034.093-.069.135-.1.008,0,.008-.009.008-.017a.792.792,0,0,0-.9.206,3.678,3.678,0,0,0-.692,4.04A3.62,3.62,0,0,0,6.8,19.313,3.52,3.52,0,0,0,9.66,17.748C9.719,17.671,9.769,17.6,9.854,17.482ZM9.448,9.805c0-.034.008-.077.008-.12,0-.9.017-1.805-.008-2.708a2.749,2.749,0,1,0-5.5.06A2.693,2.693,0,0,0,6.324,9.788C7.354,9.874,8.393,9.805,9.448,9.805Zm-.025,3.052c-.017,0-.042-.009-.068-.009-.9,0-1.8-.026-2.7.009A2.773,2.773,0,1,0,6.8,18.4a2.694,2.694,0,0,0,2.6-2.407C9.482,14.963,9.423,13.923,9.423,12.857Z" transform="translate(-0.092 -0.083)"/><path class="c" d="M150.917,5.072V0h.388V3.868A4.168,4.168,0,0,1,154.354,2.8a4.061,4.061,0,0,1,2.846,1.41,4.268,4.268,0,0,1-.008,5.527h3.479v.4h-9.348v.894h.642v.4h-.642v.885h2.8a3.163,3.163,0,0,1,3.1,2.476,3.265,3.265,0,0,1-2.576,3.92,3.343,3.343,0,0,1-3.336-1.487c-.025.387-.068.7.262,1a3.65,3.65,0,0,0,6.072-1.943,3.542,3.542,0,0,0-1.275-3.636c-.11-.095-.236-.181-.355-.275a.141.141,0,0,1-.025-.052h4.67v.4h-3.53a4.148,4.148,0,0,1-5.819,5.9v3.86h-.405c0-.077-.008-.146-.008-.215V6.972a3.221,3.221,0,0,1,2.989-3.267,3.16,3.16,0,0,1,3.353,2.588,3.19,3.19,0,0,1-1.2,3.275c-.059.052-.127.095-.22.163.38.017.692.069.971-.258a3.733,3.733,0,0,0-1.816-6.112,3.667,3.667,0,0,0-3.851,1.427C151.077,4.866,151.018,4.943,150.917,5.072Zm.439,4.676H154.1a2.744,2.744,0,0,0,2.761-2.94,2.758,2.758,0,0,0-5.489-.266C151.28,7.591,151.356,8.657,151.356,9.748Zm-.042,3v2.673a2.779,2.779,0,1,0,5.54-.163,2.7,2.7,0,0,0-2.331-2.459c-.617-.069-1.25-.043-1.875-.052Z" transform="translate(-138.157 0.009)"/><path class="c" d="M131.1,103.4h.4v1.7h-.4Z" transform="translate(-120.029 -94.503)"/><path class="c" d="M131.1,214.2h.4v1.694h-.4Z" transform="translate(-120.029 -195.778)"/><path class="c" d="M30.5,128.5h1.664v.4H30.5Z" transform="translate(-27.924 -117.445)"/><path class="c" d="M69.764,128.6v.4H68.1v-.4Z" transform="translate(-62.349 -117.536)"/><path class="c" d="M181.3,128.987V128.6h1.689v.387Z" transform="translate(-165.99 -117.536)"/><path class="c" d="M131.1,65.5h.388v1.7H131.1Z" transform="translate(-120.029 -59.861)"/><path class="c" d="M131.1,176.4h.388v1.693H131.1Z" transform="translate(-120.029 -161.227)"/><path class="c" d="M131.1,138.4h.388v1.7H131.1Z" transform="translate(-120.029 -126.494)"/><path class="c" d="M131.1,27.9h.388v1.693H131.1Z" transform="translate(-120.029 -25.493)"/><path class="c" d="M219.5,128.987V128.6h1.638v.387Z" transform="translate(-200.964 -117.536)"/><path class="c" d="M255.622,128.987H254.6V128.6h1.022Z" transform="translate(-233.099 -117.536)"/><path class="c" d="M0,129v-.4H1.039v.4Z" transform="translate(0 -117.536)"/><path class="c" d="M131.1,0h.388V.817H131.1Z" transform="translate(-120.029 0.009)"/><path class="c" d="M131.1,252.1h.388v.817H131.1Z" transform="translate(-120.029 -230.42)"/></g></g></svg>