<svg xmlns="http://www.w3.org/2000/svg" viewBox="2903.209 898.268 30 30"><defs><style>.a{fill:#fff;}.b,.d{fill:#002c58;}.c,.d{stroke:none;}</style></defs><g transform="translate(2903.209 898.268)"><g transform="translate(0 0)"><g class="a" transform="translate(0)"><path class="c" d="M 15 29.5 C 11.12691020965576 29.5 7.485640048980713 27.99173927307129 4.746950149536133 25.25304985046387 C 2.008260011672974 22.51436042785645 0.5 18.87309074401855 0.5 15 C 0.5 11.12691020965576 2.008260011672974 7.485640048980713 4.746950149536133 4.746950149536133 C 7.485640048980713 2.008260011672974 11.12691020965576 0.5 15 0.5 C 18.87309074401855 0.5 22.51436042785645 2.008260011672974 25.25304985046387 4.746950149536133 C 27.99173927307129 7.485640048980713 29.5 11.12691020965576 29.5 15 C 29.5 18.87309074401855 27.99173927307129 22.51436042785645 25.25304985046387 25.25304985046387 C 22.51436042785645 27.99173927307129 18.87309074401855 29.5 15 29.5 Z"/><path class="d" d="M 15 29 C 18.73953056335449 29 22.25523948669434 27.54375076293945 24.89949035644531 24.89949035644531 C 27.54375076293945 22.25523948669434 29 18.73953056335449 29 15 C 29 11.26047039031982 27.54375076293945 7.744760036468506 24.89949035644531 5.100510120391846 C 22.25523948669434 2.456249952316284 18.73953056335449 1 15 1 C 11.26047039031982 1 7.744760036468506 2.456249952316284 5.100510120391846 5.100510120391846 C 2.456249952316284 7.744760036468506 1 11.26047039031982 1 15 C 1 18.73953056335449 2.456249952316284 22.25523948669434 5.100510120391846 24.89949035644531 C 7.744760036468506 27.54375076293945 11.26047039031982 29 15 29 M 15 30 C 6.7157301902771 30 -1.77635683940025e-15 23.28426933288574 -1.77635683940025e-15 15 C -1.77635683940025e-15 6.7157301902771 6.7157301902771 -1.77635683940025e-15 15 -1.77635683940025e-15 C 23.28426933288574 -1.77635683940025e-15 30 6.7157301902771 30 15 C 30 23.28426933288574 23.28426933288574 30 15 30 Z"/></g></g><g transform="translate(3.571 3.571)"><g transform="translate(0 0)"><g transform="translate(0 0)"><path class="b" d="M133.618,876.448a1.4,1.4,0,1,0,1.4,1.4A1.385,1.385,0,0,0,133.618,876.448Zm0,1.885a.479.479,0,1,1,.475-.479A.467.467,0,0,1,133.618,878.333Z" transform="translate(-126.126 -860.961)"/><path class="b" d="M296.418,876.448a1.4,1.4,0,1,0,1.4,1.4A1.385,1.385,0,0,0,296.418,876.448Zm0,1.885a.479.479,0,1,1,.475-.479A.467.467,0,0,1,296.418,878.333Z" transform="translate(-281.422 -860.961)"/><path class="b" d="M103.689,632.251H93.373a1.871,1.871,0,0,0-1.848,1.885v12.2a1.872,1.872,0,0,0,1.848,1.848h.613l-.973,1.632a.46.46,0,0,0,.161.631.442.442,0,0,0,.235.064.457.457,0,0,0,.4-.226l1.254-2.1h6.979l1.254,2.1a.468.468,0,0,0,.4.226.49.49,0,0,0,.235-.064.464.464,0,0,0,.161-.631l-.973-1.632h.576a1.868,1.868,0,0,0,1.885-1.848V634.141A1.888,1.888,0,0,0,103.689,632.251Zm-.991.922-.977,6.135h-6.37l-.954-6.135Zm-1.125,7.057-.152.954H95.646l-.147-.954Zm3.079,6.107a.959.959,0,0,1-.963.927H93.373a.951.951,0,0,1-.926-.927v-12.2a.956.956,0,0,1,.926-.963h.092l1.327,8.541a.465.465,0,0,0,.456.392h6.564a.465.465,0,0,0,.456-.387l1.364-8.546h.055a.966.966,0,0,1,.963.963Z" transform="translate(-87.306 -628.02)"/><path class="b" d="M22.454,550.735a11.288,11.288,0,0,0-3.614-7.32,11.2,11.2,0,0,0-15.183,0,11.241,11.241,0,0,0-1.328,15.146A.46.46,0,1,0,3.057,558a10.324,10.324,0,0,1,15.156-13.907A10.274,10.274,0,0,1,19.434,558a.461.461,0,1,0,.733.558A11.15,11.15,0,0,0,22.454,550.735Z" transform="translate(0 -540.451)"/></g></g></g></g></svg>