<svg xmlns="http://www.w3.org/2000/svg" viewBox="2991 877 30 30"><defs><style>.a{fill:#fff;}.b,.d{fill:#002c58;}.c,.d{stroke:none;}</style></defs><g transform="translate(1990)"><g transform="translate(1001 877)"><g class="a" transform="translate(0 0)"><path class="c" d="M 15 29.5 C 11.12691020965576 29.5 7.485640048980713 27.99173927307129 4.746950149536133 25.25304985046387 C 2.008260011672974 22.51436042785645 0.5 18.87309074401855 0.5 15 C 0.5 11.12691020965576 2.008260011672974 7.485640048980713 4.746950149536133 4.746950149536133 C 7.485640048980713 2.008260011672974 11.12691020965576 0.5 15 0.5 C 18.87309074401855 0.5 22.51436042785645 2.008260011672974 25.25304985046387 4.746950149536133 C 27.99173927307129 7.485640048980713 29.5 11.12691020965576 29.5 15 C 29.5 18.87309074401855 27.99173927307129 22.51436042785645 25.25304985046387 25.25304985046387 C 22.51436042785645 27.99173927307129 18.87309074401855 29.5 15 29.5 Z"/><path class="d" d="M 15 29 C 18.73953056335449 29 22.25523948669434 27.54375076293945 24.89949035644531 24.89949035644531 C 27.54375076293945 22.25523948669434 29 18.73953056335449 29 15 C 29 11.26047039031982 27.54375076293945 7.744760036468506 24.89949035644531 5.100510120391846 C 22.25523948669434 2.456249952316284 18.73953056335449 1 15 1 C 11.26047039031982 1 7.744760036468506 2.456249952316284 5.100510120391846 5.100510120391846 C 2.456249952316284 7.744760036468506 1 11.26047039031982 1 15 C 1 18.73953056335449 2.456249952316284 22.25523948669434 5.100510120391846 24.89949035644531 C 7.744760036468506 27.54375076293945 11.26047039031982 29 15 29 M 15 30 C 6.7157301902771 30 -1.77635683940025e-15 23.28426933288574 -1.77635683940025e-15 15 C -1.77635683940025e-15 6.7157301902771 6.7157301902771 -1.77635683940025e-15 15 -1.77635683940025e-15 C 23.28426933288574 -1.77635683940025e-15 30 6.7157301902771 30 15 C 30 23.28426933288574 23.28426933288574 30 15 30 Z"/></g></g><g transform="translate(-292 46)"><path class="b" d="M13.552,10.479A.713.713,0,0,0,12.878,10H7.66a.713.713,0,0,0-.674.479L6,13.32v3.795a.476.476,0,0,0,.474.474h.474a.474.474,0,0,0,.474-.474v-.474h5.692v.474a.476.476,0,0,0,.474.474h.474a.474.474,0,0,0,.474-.474V13.32ZM7.66,15.218a.712.712,0,1,1,.712-.712A.711.711,0,0,1,7.66,15.218Zm5.218,0a.712.712,0,1,1,.712-.712A.711.711,0,0,1,12.878,15.218ZM6.949,12.846l.712-2.135h5.218l.712,2.135Z" transform="translate(1291.703 834.848)"/><path class="b" d="M13.552,10.479A.713.713,0,0,0,12.878,10H7.66a.713.713,0,0,0-.674.479L6,13.32v3.795a.476.476,0,0,0,.474.474h.474a.474.474,0,0,0,.474-.474v-.474h5.692v.474a.476.476,0,0,0,.474.474h.474a.474.474,0,0,0,.474-.474V13.32ZM7.66,15.218a.712.712,0,1,1,.712-.712A.711.711,0,0,1,7.66,15.218Zm5.218,0a.712.712,0,1,1,.712-.712A.711.711,0,0,1,12.878,15.218ZM6.949,12.846l.712-2.135h5.218l.712,2.135Z" transform="translate(1303.3 834.848)"/></g><path class="b" d="M13.552,10.479A.713.713,0,0,0,12.878,10H7.66a.713.713,0,0,0-.674.479L6,13.32v3.795a.476.476,0,0,0,.474.474h.474a.474.474,0,0,0,.474-.474v-.474h5.692v.474a.476.476,0,0,0,.474.474h.474a.474.474,0,0,0,.474-.474V13.32ZM7.66,15.218a.712.712,0,1,1,.712-.712A.711.711,0,0,1,7.66,15.218Zm5.218,0a.712.712,0,1,1,.712-.712A.711.711,0,0,1,12.878,15.218ZM6.949,12.846l.712-2.135h5.218l.712,2.135Z" transform="translate(1005.703 872.848)"/></g></svg>