<svg xmlns="http://www.w3.org/2000/svg" xmlns:xlink="http://www.w3.org/1999/xlink" viewBox="172.5 365.501 27 47">
  <defs>
    <style>
      .cls-1 {
        fill: #fff;
        stroke: #fff;
      }

      .cls-2 {
        filter: url(#Path_3234);
      }
    </style>
    <filter id="Path_3234" x="172.5" y="365.501" width="27" height="47" filterUnits="userSpaceOnUse">
      <feOffset dx="1" input="SourceAlpha"/>
      <feGaussianBlur stdDeviation="1" result="blur"/>
      <feFlood flood-opacity="0.302"/>
      <feComposite operator="in" in2="blur"/>
      <feComposite in="SourceGraphic"/>
    </filter>
  </defs>
  <g id="Group_2347" data-name="Group 2347" transform="translate(285.633 -7422.156)">
    <g id="bc387636c7ca3b5952b8063fd226ba2e" transform="translate(164.367 7781.257) rotate(90)">
      <g class="cls-2" transform="matrix(0, -1, 1, 0, -359.1, 450)">
        <path id="Path_3234-2" data-name="Path 3234" class="cls-1" d="M48.9,255a.9.9,0,0,0-.7.3L29.9,272.6,11.6,255.3a.911.911,0,0,0-.7-.3.945.945,0,0,0-1,1,.907.907,0,0,0,.3.7l19,18a.971.971,0,0,0,1.4,0l19-18a.911.911,0,0,0,.3-.7A.939.939,0,0,0,48.9,255Z" transform="translate(450 359.1) rotate(90)"/>
      </g>
    </g>
  </g>
</svg>
