<svg xmlns="http://www.w3.org/2000/svg" viewBox="2052 671 17.997 18.002">
  <defs>
    <style>
      .cls-1 {
        opacity: 0.8;
      }

      .cls-2 {
        fill: #002c58;
      }
    </style>
  </defs>
  <g id="Group_2773" data-name="Group 2773" class="cls-1" transform="translate(2162.631 -7120.156)">
    <path id="Union_6" data-name="Union 6" class="cls-2" d="M-971.527,23185.02l-7.977-8.547a.411.411,0,0,1-.128-.314.418.418,0,0,1,.128-.32l7.977-8.549a.4.4,0,0,1,.308-.133.419.419,0,0,1,.442.447.406.406,0,0,1-.134.32l-7.181,7.715h16.456v.9h-16.586l7.311,7.855a.408.408,0,0,1,.134.32.419.419,0,0,1-.442.447A.4.4,0,0,1-971.527,23185.02Z" transform="translate(869 -15376)"/>
  </g>
</svg>
