<svg xmlns="http://www.w3.org/2000/svg" viewBox="2432 2108 42 42"><g transform="translate(2392.5 2077)"><g transform="translate(39.5 31)"><path d="M197.944,155.21a28.5,28.5,0,0,0-4.158.306,11.084,11.084,0,0,1-2.048-1.379,13.871,13.871,0,0,1-3.543-5.425c.053-.2.1-.405.152-.608.217-.958.373-4.124.373-4.124s-.618,2.378-.715,2.737c-.062.228-.141.471-.23.723a16.7,16.7,0,0,1-.715-4.418,9.327,9.327,0,0,1,.128-1.521.868.868,0,0,1,.329-.659c.283.067.6.492.929,1.2a4.194,4.194,0,0,1,.266,1.767,6.119,6.119,0,0,0,.234-1.736c-.043-.387-.419-1.383-1.218-1.371h-.065l-.356-.005a1.25,1.25,0,0,0-1.261.742c-.49,1.771.058,4.51.973,7.922l-.277.661c-.7,1.673-1.576,3.34-2.346,4.819-3.179,6.1-5.651,9.384-7.3,9.614l-.007-.066c-.036-.76,1.4-2.721,3.338-4.28.2-.161,1.065-.979,1.065-.979s-1.166.6-1.428.759c-2.432,1.423-3.642,2.848-3.84,3.794a.7.7,0,0,0,.233.768l.622.307c1.692.83,3.773-1.353,6.54-6.105a61.554,61.554,0,0,1,9.528-2.22c2.863,1.6,6.148,2.366,7.409,2.037a1.259,1.259,0,0,0,.622-.417,4.337,4.337,0,0,0,.242-.784,1.663,1.663,0,0,1-.432.411c-.8.37-3.32-.247-5.908-1.488a15.019,15.019,0,0,1,5.1.069c1.265.4,1.265.8,1.248.885a2.33,2.33,0,0,0,.068-.456,1.183,1.183,0,0,0-.351-.783C200.676,155.459,199.519,155.23,197.944,155.21Zm-14.069,2.862c.479-.834,1-1.743,1.529-2.723a37.505,37.505,0,0,0,2.175-4.758,13.845,13.845,0,0,0,3.462,4.417c.333.276.688.538,1.053.785A41.255,41.255,0,0,0,183.875,158.073Z" transform="translate(-163.167 -130.452)"/><path d="M172.271,32.113a1.835,1.835,0,0,0-.673-.8,1.881,1.881,0,0,0-1.04-.312h-28.7a1.89,1.89,0,0,0-.724.144,1.855,1.855,0,0,0-.817.659A1.792,1.792,0,0,0,140,32.822V66.553a1.787,1.787,0,0,0,.146.709,1.834,1.834,0,0,0,.673.8,1.882,1.882,0,0,0,1.04.312h28.7a1.891,1.891,0,0,0,.724-.143,1.855,1.855,0,0,0,.817-.659,1.793,1.793,0,0,0,.318-1.019V32.822A1.789,1.789,0,0,0,172.271,32.113Zm-1.317,34.6a.43.43,0,0,1-.4.257h-28.7a.43.43,0,0,1-.356-.186.409.409,0,0,1-.073-.235V32.822a.41.41,0,0,1,.033-.164.43.43,0,0,1,.4-.257h28.7a.431.431,0,0,1,.356.186.409.409,0,0,1,.073.235V66.553A.408.408,0,0,1,170.954,66.716Z" transform="translate(-130.418 -31)"/><path d="M70.392,116.053a.408.408,0,0,1-.033.163.43.43,0,0,1-.4.257h-28.6a.43.43,0,0,1-.356-.186.409.409,0,0,1-.073-.235V82.322a.409.409,0,0,1,.033-.164.43.43,0,0,1,.4-.257h5.864V80.5H41.359a1.889,1.889,0,0,0-.724.144,1.855,1.855,0,0,0-.817.659,1.791,1.791,0,0,0-.318,1.019v33.731a1.788,1.788,0,0,0,.146.709,1.834,1.834,0,0,0,.673.8,1.882,1.882,0,0,0,1.04.312h28.6a1.891,1.891,0,0,0,.724-.143,1.855,1.855,0,0,0,.817-.659,1.792,1.792,0,0,0,.318-1.019v-.981h-1.43Z" transform="translate(-39.5 -75.875)"/></g><path d="M159.956,72.288a.747.747,0,0,0-.36-.178,3.605,3.605,0,0,0-.639-.036h-.35v2.5h.581a2.16,2.16,0,0,0,.471-.036.725.725,0,0,0,.314-.157.8.8,0,0,0,.2-.365,2.417,2.417,0,0,0,.079-.692,2.214,2.214,0,0,0-.079-.673A.862.862,0,0,0,159.956,72.288ZM153.5,70.5v5.606h12.014V70.5Zm3.562,2.682a1.041,1.041,0,0,1-.327.372,1.138,1.138,0,0,1-.4.179,4.532,4.532,0,0,1-.807.054h-.508v1.425h-.779V71.434h1.249a4.626,4.626,0,0,1,.926.057,1.012,1.012,0,0,1,.555.37,1.157,1.157,0,0,1,.224.736A1.212,1.212,0,0,1,157.062,73.182Zm3.88.982a1.661,1.661,0,0,1-.413.668,1.376,1.376,0,0,1-.547.3,2.4,2.4,0,0,1-.689.08h-1.465V71.434h1.423a2.837,2.837,0,0,1,.734.072,1.3,1.3,0,0,1,.581.348,1.646,1.646,0,0,1,.368.612,2.737,2.737,0,0,1,.126.893A2.439,2.439,0,0,1,160.942,74.164Zm3.427-2.09H162.5v.894h1.61v.639H162.5v1.606h-.779V71.434h2.644Zm-8.417.026a3.819,3.819,0,0,0-.56-.026h-.376v1.072h.426a2.053,2.053,0,0,0,.615-.059.51.51,0,0,0,.243-.186.5.5,0,0,0,.088-.294.483.483,0,0,0-.124-.34A.542.542,0,0,0,155.952,72.1Z" transform="translate(-103.131 -35.809)"/></g></svg>